<?xml version="1.0" encoding="iso-8859-1"?>
<!-- Uploaded to: SVG Repo, www.svgrepo.com, Generator: SVG Repo Mixer Tools -->
<svg fill="white" height="800px" width="800px" version="1.1" id="Layer_1"
	xmlns="http://www.w3.org/2000/svg" xmlns:xlink="http://www.w3.org/1999/xlink"
	viewBox="0 0 375 375" xml:space="preserve">
<g id="XMLID_790_">
	<path id="XMLID_791_" d="M175,60c-57.897,0-105,47.104-105,105s47.103,105,105,105s105-47.104,105-105S232.896,60,175,60z
		 M101.51,180h28.878c0.946,18.186,3.644,35.799,8.227,50.552C119.803,220.068,105.938,201.733,101.51,180z M130.388,150H101.51
		c4.429-21.733,18.293-40.068,37.105-50.552C134.031,114.201,131.334,131.814,130.388,150z M175,238.639
		c-4.84-6.148-12.66-26.09-14.568-58.639h29.137C187.66,212.549,179.84,232.49,175,238.639z M160.432,150
		c1.908-32.549,9.729-52.49,14.568-58.639c4.84,6.149,12.66,26.09,14.568,58.639H160.432z M211.385,230.552
		c4.584-14.753,7.281-32.366,8.227-50.552h28.878C244.061,201.733,230.197,220.068,211.385,230.552z M219.612,150
		c-0.946-18.186-3.643-35.799-8.227-50.552c18.813,10.483,32.677,28.818,37.105,50.552H219.612z"/>
	<path id="XMLID_799_" d="M175,0C84.019,0,10,74.019,10,165s74.019,165,165,165c8.284,0,15-6.716,15-15s-6.716-15-15-15
		c-74.44,0-135-60.561-135-135S100.56,30,175,30c8.284,0,15-6.716,15-15S183.284,0,175,0z"/>
	<path id="XMLID_800_" d="M270.24,371.391c2.828,2.424,6.299,3.609,9.753,3.609c4.228,0,8.431-1.777,11.397-5.24l25.502-29.764
		l33.108-0.002c8.284,0,14.999-6.717,14.999-15.001c0-8.284-6.717-14.999-15.001-14.999l-39.716,0.002c-0.004,0-0.008,0-0.013,0
		L253.492,310l-10.63-17.717c-4.262-7.104-13.477-9.408-20.579-5.146c-7.104,4.263-9.408,13.476-5.145,20.579l15,25
		c2.711,4.52,7.594,7.283,12.863,7.283l32.384-0.002l-8.775,10.242C263.219,356.531,263.949,366,270.24,371.391z"/>
</g>
</svg>